<?xml version="1.0" encoding="utf-8"?>
<svg version="1.1" xmlns="http://www.w3.org/2000/svg" xmlns:xlink="http://www.w3.org/1999/xlink" width="290px" height="52px" viewBox="0 0 290 52">
	<path fill="#ef2c3b" d="M75.7,0C72,0,69,3,69,6.7c0,3.7,3,6.7,6.7,6.7c3.7,0,6.7-3,6.7-6.7C82.5,3,79.5,0,75.7,0z M156.2,15.5h-12.4
		c-2,5.9-4.6,9.7-9.5,12.1c0-4.9,0-26.9,0-26.9h-12.5v50.3h12.5c0,0,0-5.5,0-10.1c1.2-0.4,2.4-0.9,3.6-1.4l6.8,11.6h13.7L147,32.5
		C152.7,26.5,156.2,19.1,156.2,15.5z M104.3,41.3c-4,0-7.9-3.3-7.9-8.1v-0.1c0-4.7,3.9-8,7.9-8c2.6,0,5.1,1.4,6.6,3.6l8.2-6.1
		c-3-4.8-7.9-7.9-15.1-7.9c-11.2,0-19,8.5-19,18.5v0.1c0,10,7.9,18.4,18.5,18.4c7.8,0,12.5-3.3,15.8-8.1l-8.3-6
		C109.6,39.9,107,41.3,104.3,41.3z M24.5,14.8c-3.7-0.5-8.8,0.5-12.1,3.2V0.6H0v50.3h12.5v-2.6c3.3,2.7,8.5,3.8,12.2,3.3
		c6.8-0.9,14.4-7,14.4-18.3v-0.2C39.1,21.7,31.3,15.6,24.5,14.8z M28,33.2c0,4.8-3.9,8.1-7.9,8.1c-4,0-7.9-3.3-7.9-8.1v-0.1
		c0-4.7,3.9-8,7.9-8c4.1,0,7.9,3.3,7.9,8V33.2z M54.5,20.1v-4.7H42.1v35.5h12.5l0-13.8c0-6.5,2.9-9.9,9.8-9.9h1.4V15.4
		C62.1,15.2,58.1,16.2,54.5,20.1z M69.5,50.9H82V15.5H69.5V50.9z M230,14.7c-10.5,0-18.5,8.2-18.5,18.6v0.1c0,11,8.4,18.4,19.6,18.4
		c7.1,0,12-2.9,15.4-7.2l-6.9-5.7c-2.6,2.5-4.9,3.6-7.9,3.6c-3.9,0-7.4-2-8.4-5.8h24.4c0.1-0.9,0.1-1.8,0.1-2.6
		C247.9,23.6,242.3,14.7,230,14.7z M223.2,30.3c0.7-3.9,3.6-6.4,6.9-6.4c3.4,0,5.7,2.5,6.2,6.4H223.2z M275.5,14.8
		c-3.7-0.5-8.8,0.5-12.1,3.2V0.6h-12.5v50.3h12.5v-2.6c3.3,2.7,8.5,3.8,12.2,3.3c6.8-0.9,14.4-7,14.4-18.3v-0.2
		C290,21.7,282.3,15.6,275.5,14.8z M278.9,33.2c0,4.8-3.9,8.1-7.9,8.1c-4,0-7.9-3.3-7.9-8.1v-0.1c0-4.7,3.9-8,7.9-8
		c4.1,0,7.9,3.3,7.9,8V33.2z M201.4,15.5l-4.8,18l-5.5-18h-10.3l-5.4,17.8l-4.7-17.8h-12.2l10.8,35.5H180l5.9-18.2l5.8,18.2h10.7
		l10.9-35.5H201.4z"
	/>
</svg>