<?xml version="1.0" encoding="UTF-8"?><svg id="svg23" xmlns="http://www.w3.org/2000/svg" viewBox="0 0 308.76 296.41"><defs><style>.cls-1{fill:#ff4a3f;}.cls-2{fill:#fff;font-family:ALoveofThunder, 'A Love of Thunder';font-size:220px;}</style></defs><g id="SvgjsG2685"><g id="g17"><path id="path3" class="cls-1" d="m56.48,35.26h1.43l-1.14-.57-.29.57Zm3.72-1.72q0,.29.29.29l1.14-.86c-.57-.29-.86-.29-1.43.57Zm-11.16,7.72l.86-.57c.29-.29.29-.57.29-.57h-.57l-.57,1.14c-.29-.29-.29,0,0,0Zm6.29-8.3h-.29l-.57.57h.86v-.57Zm-6.01,6.86l1.72-1.43c.29-.29.29-.57.29-.86h-.86l-3.43,3.15-.57,1.14,2-1.72.86-.29Z"/><path id="path5" class="cls-1" d="m27.59,63.01v-.57c.22-1.27.94-2.41,2-3.15l2.57-1.72,1.43-1.72,2-2,1.14-1.14,1.14-.86c1.02-.59,1.82-1.49,2.29-2.57l1.14-1.43c1.12-1.1,2.08-2.35,2.86-3.72l.57-.86.86-.57-.57-.86,1.14-1.43c2.29-1.72,4-4,6.29-5.72l.86-.86c.3-.7.8-1.29,1.43-1.72l2.29-1.14h1.14c.84-.33,1.55-.93,2-1.72v-.57c.84-1.65,2.13-3.04,3.72-4l2.29-1.43.57-.57,1.14-1.14,2.86-1.43h.57l-3.15,1.14-4,2.86c-1.72,1.43-4,1.72-5.15,4h.86c-2,.57-4,1.43-4.86,3.43s-2.29,1.72-3.43,2.57c-.52.13-.88.61-.86,1.14-2.29-.29-3.15,1.43-4.29,2.57v2.29c-1.87.89-3.45,2.27-4.58,4-4.58.29-4.58,6.01-8.58,7.15h-.29c-.1.18-.1.4,0,.57-.86,0-1.43.57-1.14,1.43l-.57,1.43c-2,1.14-1.72,3.15-2.86,4.86-2.29,1.43-3.15,4.29-4.86,6.29l.86,1.43.57-.57c.77-1.3,1.63-2.54,2.57-3.72ZM154.02.94l1.72.57h.57c1.24.63,2.64.83,4,.57,1.81-.33,3.67-.23,5.43.29h3.43c1.22-.26,2.48.05,3.43.86.05.09.05.2,0,.29h-1.14c-.05.09-.05.2,0,.29h2c1.2-.46,2.52-.46,3.72,0,.57,0,.29.29.57.57l1.43.57h-.57c-.57-1.14-1.43-1.14-2.29-1.14-3.85-1.79-8.06-2.67-12.3-2.57h-2.29c-3.33-1.02-6.82-1.41-10.3-1.14h.57l2,.86Zm20.88,8.87h.57-.57Zm21.45,1.43c.74.76,1.88.99,2.86.57h1.72c-1.46-1.2-3.26-1.9-5.15-2l-2-.57,1.43.86,1.14,1.14Zm-9.73-3.72c0,.29.29.57.57.86h.57l1.43-.86c-1.48-.92-3.14-1.5-4.86-1.72l2,1.14.29.57Zm21.17,7.72l2.29,1.43c-.57-.86-1.14-1.43-2.29-1.43Z"/><path id="path7" class="cls-1" d="m283.02,209.17l1.72-4.58,1.72-4.29c.57-1.43,1.72-5.15,2.29-7.44.13-.72.42-1.41.86-2h.29v-3.15c1.43-.29,1.14-1.72,1.43-2.57l2.29-13.44c1.47-5.82,1.47-11.91,0-17.73.26-1.66-.27-3.36-1.43-4.58v-12.3c-.86-2.57.86-5.43-1.14-7.72l-2.29-9.15c.05-.19.05-.38,0-.57l-.57-1.72c-.16-.36-.16-.78,0-1.14h.29c.86,0,.86-1.43.86-2.57-.17-1.11-.56-2.18-1.14-3.15l-.86-1.14c-.41-.58-.61-1.29-.57-2,.1-1.92-.09-3.85-.57-5.72v-1.72c-.57-2-1.14-4.29-1.72-6.29l-.57-1.43c-.62-.94-1.02-2.02-1.14-3.15-.15-.81-.44-1.58-.86-2.29l-1.72-2.86c-.47-.42-1.09-.63-1.72-.57h-.29v-.86h-.57v-2.29h-.29v-.57c.01-.09.01-.19,0-.29v-.57c.29-.57.29-.86-.29-1.43-.49-.49-.88-1.07-1.14-1.72l-.57-1.72c-.38-1.29-1.07-2.47-2-3.43-.6-.57-1.09-1.25-1.43-2l-2-4.58c-.44-1.03-1.02-1.99-1.72-2.86l-1.72-2.29c-.52-.68-.91-1.46-1.14-2.29l-.57-.86c-.3-.41-.41-.93-.29-1.43,0-.45-.21-.87-.57-1.14l-1.14-.86v.57c.29.57,0,.86-.29.86h-.57l.86,2.86.86,1.43,2,2.57h-.29l-.57-.57-.57-.57c-.26-1.72-1.69-3.03-3.43-3.15v-2c-.86-3.43-4.58-3.72-6.29-6.01-.55-1.33-1.73-2.3-3.15-2.57l-2.29-2.57c-2.38-3.4-5.39-6.32-8.87-8.58l-2.29-1.72-1.14-.86c-2-2-2.86-5.15-6.29-5.15l-2.29-1.43-2.57-2c-.92-2.08-2.89-3.5-5.15-3.72-1.86-1.69-4.13-2.87-6.58-3.43l.57.57,1.43,1.14,3.72,2c2.23,1.2,4.26,2.75,6.01,4.58,1.28,1.24,2.72,2.3,4.29,3.15l1.72,1.43c.29.29.57.57.29.86h-.29l-2.57-.86c-2.04-.39-3.98-1.16-5.72-2.29l-3.43-1.72-3.72-2h-.57c-.86-.29-1.14-1.14-2.29-1.43l-2.29-.57-7.15-1.43c-1-.47-1.87-1.15-2.57-2-.92-.04-1.82-.33-2.57-.86l-2.86-1.14c-2.73-.55-5.41-1.31-8.01-2.29l-1.72-.57-2.86-.86h-1.43l-.57-.86v-.29h-4.58l-1.72-1.43-1.14.57-1.14.57h-.57l-2.57-1.43c-1.72,1.72-3.15-.57-4.58-.29l-2.86-.86c-1.06.61-2.37.61-3.43,0h-3.43c-.83-.14-1.44-.87-1.43-1.72l.86-.57h1.72c.16.26.26.55.29.86,0,.57.57.57,1.43.57h.57l-1.14-1.72c-.8-.65-1.87-.86-2.86-.57l-2.86.86h-.29c.86.57.57.86.57,1.43h-4.58l-1.14-.57-2.29-1.14h-.29l-2-.57h-6.58l1.14-.57,2.29-.57h.86l4.86-.86,3.15-.57,1.72-.57h-3.15c-3.21-.66-6.52-.66-9.73,0h-3.72l-9.73-.29c-4,.29-8.01,0-11.16,3.43-7.15-1.14-13.44,2-19.74,5.15l-6.29,2.57c-3.98.56-7.68,2.36-10.58,5.15h.86l1.43-.86,2.29-1.43,3.72-1.72,2.86-.57c1.73-1.2,3.67-2.07,5.72-2.57l2.57-.86h.57c.29.57,1.43,0,2,0h.57c.29,0,.29.29,0,.29l-1.72,1.14,2.86-.86,2.29-.57-3.72,2-3.72,1.14c-.74.22-1.36.74-1.72,1.43l-.86,1.43h.86l1.14-.57c.59-.89,1.52-1.51,2.57-1.72l4.29-1.43h1.43c.16-.08.35-.01.43.14.08.16.01.35-.14.43h0c-.57.57-1.72.86-2.29,1.43h.57l-9.15,2.57-10.87,4.58c-1.87,1.68-4.13,2.86-6.58,3.43-1.45,1.29-3.09,2.35-4.86,3.15l-2.29.57c-.65,1.49-2.09,2.49-3.72,2.57l-.86,1.43c-.9,1.29-2.07,2.37-3.43,3.15h-.29v-.29l-.57.57-.57.57-2.86.57h-1.43l-1.14,1.43c-.29.29-.29.57,0,.57h.29c-1.72,1.72-2.86,4-5.15,4.86l-3.72,4.29c-1.72,3.43-5.15,4.58-7.44,7.44s-4,11.16-11.16,12.3l-.57-.86-.57,1.43c-.25.82-.64,1.59-1.14,2.29-1.29,1.92-2.43,3.93-3.43,6.01-.25.43-.35.94-.29,1.43.04.8-.16,1.6-.57,2.29l-1.43,3.15h.57c.86,0,.86.86,1.14,1.72l2.29-3.15c.42-.78,1.01-1.46,1.72-2,1.12-.55,2.02-1.46,2.57-2.57l.86-.86,1.14-1.14,1.72-3.15h.57q.29.29.57,0l.57-1.14h1.43v2.29l1.43-1.43c.26-.44.26-.99,0-1.43-.03-.31.08-.62.29-.86.38-.42.67-.9.86-1.43.3-1.18,1.15-2.14,2.29-2.57l.86-.57.86-.86c1.01-.73,1.8-1.72,2.29-2.86l-.57-.86c0-.29.29-.86.57-1.14h1.43l1.72-2.29,1.72-.86h.57c-5.87,6.36-11.14,13.26-15.73,20.59h-.29.29c-6.41,9.99-11.5,20.75-15.16,32.04h-1.43l-1.43-1.14c-.57-.57-.29-2-1.14-2.57h.29c.86-1.43-.29-3.43.86-4.86s.29-4-2.57-3.43-4.29,1.43-3.72,4.29-2.86,5.15-3.15,8.3-1.43,1.43-.86,2.57v11.16c.29,2.29-1.43,5.15,2.29,6.01l3.72,2.57c.29,1.43-1.43,4.58,2.57,3.72-.53,4.75-.82,9.52-.86,14.3,0,3.15.29,6.29.29,9.44v-1.14c-.29-1.14-.29-2.29-.57-3.72l-.86.86v-.57h-1.43c0,1.43-.29,2.29-1.14,2.57-.23.44-.33.94-.29,1.43,0,.29.29.86.57.57s1.14.57,2,1.14-.57.86-1.14.57-.57.29-.57.86v.86l1.43,4.29c0,.86-.29,1.72-.29,2.57,0,.8.2,1.58.57,2.29h-.86v-.86l-2-.57v-1.72c.08-.47.08-.96,0-1.43-.39-1.7-.68-3.42-.86-5.15-.54-3.31-.74-6.66-.57-10.01-.04-.49.05-.99.29-1.43v.57c.14.47.23.95.29,1.43,0,.4.09.79.29,1.14.29.57.57,1.14,1.14,1.14s.29-.29.29-.57c-.04-.49-.13-.97-.29-1.43-.48-1.19-.77-2.44-.86-3.72-.11-.73-.4-1.42-.86-2-.44-.78-.64-1.68-.57-2.57v-2.29c0-.86.29-1.72.29-2.57.07-.4-.03-.82-.29-1.14h-.29c-2.29,1.14-2,.57-2.86,4.58v5.15c0,2-.29,4,0,6.01-.04,2.21.15,4.41.57,6.58.07.47.07.96,0,1.43-.03.87.07,1.73.29,2.57.23,1.23.33,2.47.29,3.72-.17,1.64.02,3.3.57,4.86.06.38.06.77,0,1.14-.05.77.04,1.55.29,2.29.27.84.46,1.7.57,2.57.31,2.13.78,4.24,1.43,6.29.29.93.48,1.89.57,2.86.13.72.42,1.41.86,2,.73,1.02,1.22,2.19,1.43,3.43.23.97.51,1.93.86,2.86l1.14,4c.35,1.51.93,2.95,1.72,4.29,1.03,1.89,1.79,3.91,2.29,6.01l.57,1.43c.73.81,1.22,1.8,1.43,2.86.21.84.6,1.62,1.14,2.29.32.42.52.91.57,1.43.29.86.57,1.14,1.14.86h.29v2.57l1.43,2.86,1.43,2.86,3.15,3.43,1.14,1.14c.86.86,2,1.43,2.57,2.86l1.14.86c.48.33.79.85.86,1.43l.57,2c.43.95,1.01,1.82,1.72,2.57l1.14.57h.86c.3.1.46.43.35.73-.02.05-.04.09-.06.13-.05.48-.05.95,0,1.43.19.6.6,1.11,1.14,1.43h.57c1.14-.29,2.29.57,3.43,2h.29c0-.29.29-.29,0-.57v-.57c0-.29.29-.57.57-.29.56.39.88,1.04.86,1.72v.57c.21,1.19.6,2.35,1.14,3.43q1.43.86,1.43.29t.57-.57h1.14l.57.86,2.29,1.43c2,2.29,5.15,2,7.44,3.43l4.86,4.86h.57c.84,2.08,2.49,3.73,4.58,4.58.63.99,1.69,1.63,2.86,1.72,0,1.43,1.72,1.72,3.15,2,.59.66,1.41,1.07,2.29,1.14h.57c1.11,1.15,2.71,1.69,4.29,1.43l2.57,2.29,6.86,2.57v.57c1.43,3.15,4.86,2,7.15,2.86l3.15,1.14h1.14c3.43.86,6.86,2.57,10.58,1.43-.11.37-.11.77,0,1.14,3.15,2,6.86,0,10.3,1.14,1.56.58,3.25.68,4.86.29h.29l2.29.57h.86l2.57.57h.86c.44-.26.99-.26,1.43,0,1.39.52,2.83.9,4.29,1.14h1.72c.62-.36,1.38-.36,2,0h11.16c1.53.15,3.08.05,4.58-.29h2.86l1.43-.57h9.44l1.72-.57,1.43-.86h6.29v1.72h-3.72l-3.43.57c-1.14.29-2,0-2.86.29-.9.39-1.88.59-2.86.57l-3.72.86h-1.14c-1.43-.26-2.91-.16-4.29.29h-5.15c-.82.37-1.76.37-2.57,0h-12.87c-1.12-.21-2.29.1-3.15.86h-.86l-.86-.57v-.86h-3.43c-1.18-.49-2.44-.78-3.72-.86h-7.15l-2-.57-1.43-.57-6.01-1.14h-1.43l-1.43-.57-6.01-2-4-1.14h-6.29c-.29,0-.29.29-.29.57h.57c3.72,1.43,7.44,2.57,11.16,4.29h.86l2.57.57,4,1.14h3.72l1.72.57,2,.86,4.86.86,3.15.57,3.15.57h2.29l2.29.57h8.87l2.86.57h6.58l2.86-.57h6.29c1.14,0,1.72-.29,2-.86h2.86c.85.07,1.69-.24,2.29-.86-.29.29,0,.29.29.57h1.14v-.57q0-.29.57-.57c.57-.29,1.72-.29,2,.29h1.14l.86-.57q.57,0,.57.29h2l1.43-.57,2.29-1.14c.29.86,1.14,1.14,3.72.57l3.72-1.14h3.43c2.57-.29,5.72,0,7.72-2h.57l1.14-.86,3.15-.86c2.03-.42,3.96-1.19,5.72-2.29l1.14-.57h.29l2.57-1.72,1.14-.57,1.43-.57h1.14q1.14-.29,1.43-1.14c.29-.86,0-.29-.57-.29h-.29l1.14-1.43h.57c.86-.29,1.43-.57,2-.29h.57c1.25-.35,2.22-1.33,2.57-2.57.86-1.14,3.15-.57,3.72-2.29l12.3-8.87c3.15-.29,4-3.15,6.29-4.86s6.58-3.15,8.58-6.29l2.57-1.14h.29c1.5.37,3.01-.52,3.43-2v1.14c2.29-1.14,5.15.86,7.44-1.43s0-7.72,2.86-10.87l2-1.43c2.16-3.7,3.62-7.78,4.29-12.01l.57-.57c0-.86,0-2,1.14-2.57,1.05-.82,1.3-2.31.57-3.43h-.57c.15-.27.15-.59,0-.86,2,0,2.29-2,3.43-2.86v-4c-.04-.19-.04-.38,0-.57.16-.66.25-1.33.29-2h0Z"/><path id="path9" class="cls-1" d="m75.35,18.1l-.86.57-1.14.86,1.43-.57.57-.86Zm17.45-5.72h.29l.86-.57h-1.14v.57Zm-7.44,2.86l-.29.29h.29v-.29Zm-59.21,51.2l-1.14,1.14h.57c.41-.23.63-.68.57-1.14Zm8.58-10.01c.38-.52.67-1.1.86-1.72-.58.36-1.07.85-1.43,1.43-.29.29-.29.57,0,.57l.57-.29Zm-3.43,4.29v-.57c-.57,0-1.43.86-2.29.86v.57c.86.86,1.14.57,2.29-.86ZM211.22,17.81h.29l-1.43-.86,1.14.86Zm-7.15-4c1.43-.29,2.29,1.14,3.43,1.43h.29l-.86-.57-2.86-1.43-3.15-1.43.86.57,2.29,1.43Zm-19.74-7.72h-.29l-3.43-.57h1.43l2.29.57Zm5.72,2l3.72,1.14c-1.15-.64-2.41-1.03-3.72-1.14Zm-25.74,0c.32-.42.52-.91.57-1.43h-1.43l-.86.86,1.14.86.57-.29Zm13.73.86c0,.1,0,.19,0,.29v-.29Zm128.14,149.6h-.86v-1.14h.86c.29,0,.57-.86.29-1.14s-.29-2-.86-2.29c-.36-.13-.59-.48-.57-.86l.57-1.14c.05-.19.05-.38,0-.57h-.57l-.57-.86c-.29.86-.57,1.72-1.14,2-.04.19-.04.38,0,.57,0,.29,0,.57-.29.57h-.29c-.05.3-.15.59-.29.86-.56.77-.95,1.64-1.14,2.57-.12.4-.01.85.29,1.14h.29c-.28.73-.38,1.51-.29,2.29v1.14c-.03.49-.12.97-.29,1.43h-.29l-1.14,2v1.72c.14,1.12-.17,2.25-.86,3.15h-.57l-.57-.57c-.45-.68-.56-1.52-.29-2.29.31-1.6.4-3.24.29-4.86,0-.29-.29-.57-.29-.57-.19.25-.29.55-.29.86v1.72c0,.57-.29,1.72-.86,2s-.29.57-.29.86l-.57,1.72.86,1.43c-.57.57-1.14.29-1.43-.29v2.86h.86v1.14c-.51,1.28-.8,2.63-.86,4-.02.38-.02.76,0,1.14.02,1.26-.18,2.52-.57,3.72-.09.57-.09,1.15,0,1.72l-.86,2c-.21.7-.49,1.37-.86,2l-.86,1.72-2.57,7.72c.86,2.57-1.14,4.29-2.29,6.01.33,2.43-.52,4.87-2.29,6.58v1.14c0,.29.29.57.86.29l1.14-.86.57-1.14h.57c.29.29.57.29,1.14-.29h.57c.47.44.59,1.15.29,1.72-.2.75-.3,1.52-.29,2.29,0,.29,0,.57.29.57h.57c.29.29.57,0,.86-.86l.57-1.43h.86q1.14-.29,1.72-1.72l1.43-2.57.86-1.72,1.14-2.86c-.04-1.02.26-2.03.86-2.86.4-.48.51-1.13.29-1.72,0-.57,0-.86.57-1.72l.86-1.14,1.43-2.86c.11-.87.3-1.74.57-2.57.56-1.16.85-2.43.86-3.72.18-.89.47-1.76.86-2.57v-1.43q-.29-.57,0-1.72c.29-1.14.29-.57.57-.57.21.23.31.54.29.86l.57-1.43c.36-.81.56-1.69.57-2.57v-.86c0-.29,0-.86-.29-.86v1.14c-.57,0-.86.57-1.43.86.14-.76.24-1.52.29-2.29l1.14-.57c.45-.45.67-1.09.57-1.72-.03-.29-.03-.57,0-.86.39-1.3.58-2.65.57-4v-.57l.86-2.86h.29c.25-.21.36-.54.29-.86h-.29c-.19-.81.02-1.66.57-2.29-.36-1.31-1.31-2.37-2.57-2.86h0ZM25.87,79.6c.07-.19.07-.39,0-.57l-.57-.57-.57.57-.86,1.72c0,.86-.86,1.72-.86,2.57v.57h.29l2.57-4.29Zm275.45,70.94h.29c.61-1.03.81-2.26.57-3.43-.1-.55.12-1.11.57-1.43h.29v-.57l-.57-.57h-.29c-.29.29-.57.86-.86.86s-.29.29-.29.86v.86c-.23,1.15-.13,2.34.29,3.43h0ZM37.6,249.22c-.29,0,0,.57,0,.86l2.29,2.29h.29c-.57-.86-.86-1.72-.57-2-.52-.04-1.02-.24-1.43-.57l-.57-.57Zm266.3-101.26h.29c.09-.57.09-1.15,0-1.72q-.86.29-.86,1.72c0,1.43.29.29.57,0h0Z"/><path id="path11" class="cls-1" d="m305.04,168.84c.3-.41.41-.93.29-1.43,0-.29-.29-.57-.29-.29h-.57v.57c0,1.14.29,1.43.57,1.14h0Zm.29-23.46h-.29v1.72c.27-.53.37-1.13.29-1.72ZM48.75,256.37h-.57v.57l.57.57h.57v-.57l-.57-.57Zm247.71-95.25q0-.29-.29-.29l.29.29ZM28.16,238.92l1.43,1.43-1.14-1.72-.29.29Z"/><path id="path15" class="cls-1" d="m27.59,77.6h-.29v.57-.57h.29Zm237.98-18.88l-.57-.86h-.29l.86.86ZM16.43,84.17c.17-.15.27-.35.29-.57v.57h-.29Zm281.75,80.66v.29-.29Zm-251.43,91.25h-.29c.29.29.57,0,.29-.29v.29Zm.57,2h.29l-.29-.29v.29Z"/></g></g><text class="cls-2" transform="translate(54.9 229.5)"><tspan x="0" y="0">N</tspan></text></svg>